<?xml version="1.0" encoding="UTF-8"?>
<svg version="1.1" xmlns="http://www.w3.org/2000/svg" width="431" height="263">
<defs>
  <!-- Animated gradient -->
  <linearGradient id="brandGradient" x1="0%" y1="0%" x2="100%" y2="100%">
    <stop offset="0%" style="stop-color:#2563eb;stop-opacity:1">
      <animate attributeName="stop-color" 
               values="#2563eb;#7c3aed;#2563eb" 
               dur="4s" 
               repeatCount="indefinite"/>
    </stop>
    <stop offset="50%" style="stop-color:#7c3aed;stop-opacity:1">
      <animate attributeName="offset" 
               values="50%;60%;50%" 
               dur="4s" 
               repeatCount="indefinite"/>
    </stop>
    <stop offset="100%" style="stop-color:#9333ea;stop-opacity:1">
      <animate attributeName="stop-color" 
               values="#9333ea;#2563eb;#9333ea" 
               dur="4s" 
               repeatCount="indefinite"/>
    </stop>
  </linearGradient>
  
  <!-- Glow filter -->
  <filter id="glow">
    <feGaussianBlur stdDeviation="3" result="coloredBlur"/>
    <feMerge>
      <feMergeNode in="coloredBlur"/>
      <feMergeNode in="SourceGraphic"/>
    </feMerge>
  </filter>
  
  <!-- Magic sparkle filter -->
  <filter id="sparkle" x="-50%" y="-50%" width="200%" height="200%">
    <feGaussianBlur in="SourceGraphic" stdDeviation="2">
      <animate attributeName="stdDeviation" 
               values="2;4;2" 
               dur="3s" 
               repeatCount="indefinite"/>
    </feGaussianBlur>
    <feMerge>
      <feMergeNode/>
      <feMergeNode in="SourceGraphic"/>
    </feMerge>
  </filter>
</defs>

<!-- Main container with subtle rotation -->
<g transform="translate(215.5, 131.5)">
  <animateTransform
    attributeName="transform"
    type="rotate"
    values="0;2;0;-2;0"
    dur="6s"
    additive="sum"
    repeatCount="indefinite"/>
  
  <!-- Translate back to original position -->
  <g transform="translate(-215.5, -131.5)">
    
    <!-- Floating animation -->
    <g>
      <animateTransform
        attributeName="transform"
        type="translate"
        values="0,0; 0,-8; 0,0"
        dur="4s"
        repeatCount="indefinite"/>
      
      <!-- Main lamp body -->
      <path d="M0 0 C4.99309258 2.71053597 8.74964776 5.70768755 11.5 10.75 C12.2127694 15.38300109 10.71492619 18.73300356 9 23 C8.67 23.99 8.34 24.98 8 26 C9.0725 26.495 10.145 26.99 11.25 27.5 C14.51882587 29.00868886 15.35483186 30.67646667 16.671875 33.875 C19.12314411 39.09016384 22.84601832 40.4333766 28 42.5 C29.71808642 43.24780196 31.43295274 44.00304534 33.14453125 44.765625 C33.97678223 45.13623047 34.8090332 45.50683594 35.66650391 45.88867188 C41.65579345 48.74107259 46.9197856 52.79085134 52.29296875 56.64453125 C55.48876919 58.82103324 57.2591869 59.97094851 61.1875 60.125 C65.64458935 58.34216426 67.92662307 55.48563411 70.66796875 51.69140625 C76.29403365 44.07011834 82.93451348 39.02182884 92 36 C133.52872705 32.56329679 133.52872705 32.56329679 143 40 C146.95637112 43.80688607 148.8990673 47.04863456 149.1875 52.625 C149.04522118 59.67426877 148.16679254 65.97903465 143.1484375 71.2421875 C130.70986455 81.41920174 115.67385734 85.09438827 100.25 88.25 C98.96867187 88.518125 97.68734375 88.78625 96.3671875 89.0625 C93.24605131 89.71467771 90.12373036 90.36038513 87 91 C86.92523438 91.97582031 86.85046875 92.95164062 86.7734375 93.95703125 C86.57621094 95.86548828 86.57621094 95.86548828 86.375 97.8125 C86.25898438 99.07707031 86.14296875 100.34164062 86.0234375 101.64453125 C85 105 85 105 82.09008789 106.92211914 C79.01690094 107.99410463 76.68014995 108.43288741 73.4375 108.4375 C72.52871094 108.45683594 71.61992187 108.47617188 70.68359375 108.49609375 C67.2582221 107.86287366 65.53927748 106.31887003 63 104 C62.40574219 104.90621094 61.81148438 105.81242187 61.19921875 106.74609375 C54.26108899 117.04567659 46.61970508 124.39856171 36 131 C38.86999089 137.33514118 42.08393935 142.744023 46.546875 148.08984375 C49.51880901 151.99649894 49.5414214 156.29441108 49 161 C47.07985707 169.18655531 42.9189165 174.34243852 36 179 C19.90234863 187.94819942 -4.30556139 188.88558891 -22 184 C-32.02502257 180.62435708 -41.9490487 175.98474587 -48 167 C-50.26137991 161.55213022 -50.68651099 156.63062665 -49 151 C-45.75219275 144.73948146 -41.54640639 139.3487134 -37 134 C-36.67 133.01 -36.34 132.02 -36 131 C-36.79019531 130.76667969 -37.58039063 130.53335938 -38.39453125 130.29296875 C-59.59115266 122.69158014 -77.66296775 108.88757896 -95.5625 95.62109375 C-103.35370146 89.87581065 -111.17695396 84.5330876 -119.59472656 79.74633789 C-125.74545543 76.22929119 -131.60235163 72.34131755 -137.41015625 68.28491211 C-147.08109988 61.65090837 -157.53004446 57.16924301 -168.5625 53.3125 C-169.73474121 52.89532715 -170.90698242 52.4781543 -172.11474609 52.04833984 C-179.21001952 49.55904529 -186.34358637 47.24604196 -193.53515625 45.05078125 C-194.33375565 44.80578384 -195.13235504 44.56078644 -195.95515442 44.30836487 C-199.89686223 43.10137094 -203.84279462 41.91348123 -207.79907227 40.75512695 C-209.2437967 40.31900005 -210.68838376 39.88241773 -212.1328125 39.4453125 C-212.79922256 39.25709427 -213.46563263 39.06887604 -214.15223694 38.87495422 C-217.08433911 37.9729529 -218.69910422 37.45324547 -220.42919922 34.84716797 C-220.61756348 34.23760254 -220.80592773 33.62803711 -221 33 C-212.43633136 29.54159536 -204.08758877 29.44795021 -195 30 C-194.34 30.33 -193.68 30.66 -193 31 C-193 31.66 -193 32.32 -193 33 C-192.01 32.505 -192.01 32.505 -191 32 C-184.38197443 31.61645534 -178.43970534 32.72756181 -172 34.1875 C-170.47596558 34.52914185 -170.47596558 34.52914185 -168.92114258 34.87768555 C-155.35638012 37.98772869 -142.92334593 42.29146677 -130.2734375 48.0703125 C-113.60475531 55.66456708 -98.74973299 58.18748132 -80.49536133 58.18530273 C-78.43745546 58.18750005 -76.38007805 58.20575732 -74.32226562 58.22460938 C-61.69064061 58.28560271 -53.61015646 56.20668019 -42.5625 50.125 C-36.13181673 46.62200355 -29.90426444 43.38279341 -22.94580078 41.05029297 C-20.48393046 39.721439 -20.10178094 38.63306419 -19.3125 36 C-19.13332031 35.3090625 -18.95414063 34.618125 -18.76953125 33.90625 C-17.32175846 30.31988897 -14.42713486 29.46877208 -11 28 C-10.01 28 -9.02 28 -8 28 C-8.46792969 26.948125 -8.46792969 26.948125 -8.9453125 25.875 C-12.52494986 17.15111557 -12.52494986 17.15111557 -11.5625 12.625 C-9.07247851 6.84815014 -4.88806462 3.7707927 0 0 Z " 
            fill="url(#brandGradient)" 
            transform="translate(246,64)" 
            filter="url(#glow)">
        <animate attributeName="filter" 
                 values="url(#glow);url(#sparkle);url(#glow)" 
                 dur="6s" 
                 repeatCount="indefinite"/>
      </path>
      
      <!-- Smoke from spout with wave animation -->
      <g transform="translate(50,9)">
        <animateTransform
          attributeName="transform"
          type="translate"
          values="50,9; 48,7; 50,9; 52,7; 50,9"
          dur="3s"
          repeatCount="indefinite"/>
        <path d="M0 0 C8.35352573 3.61658526 15.81801955 11.29540832 19.37890625 19.6171875 C20.4177664 23.6027516 20.0629338 26.43605093 18 30 C12.04842362 37.2342437 2.28963617 40.53164337 -6.08984375 44.10546875 C-8.251708 45.05985433 -8.251708 45.05985433 -11 47 C-10.07145739 55.2591422 -8.6680993 62.8549698 -5.8046875 70.671875 C-5 73 -5 73 -5 75 C-10.17503281 74.32653683 -12.06658932 72.49882349 -15.29296875 68.5625 C-20.56971995 60.64133572 -23.6227943 50.49999539 -24 41 C-22.98421548 36.15548924 -21.22387589 33.87239647 -17.3125 31.0625 C-10.4922308 26.88196954 -3.19553741 23.47857882 4 20 C4.20784297 14.90135223 3.59619274 10.90095924 2 6.0625 C1.62875 4.91910156 1.2575 3.77570312 0.875 2.59765625 C0.58625 1.74042969 0.2975 0.88320312 0 0 Z " 
              fill="#2563eb">
          <animate attributeName="fill-opacity" 
                   values="0.6;1;0.6" 
                   dur="2s" 
                   repeatCount="indefinite"/>
        </path>
      </g>
      
      <!-- Highlight/shine effect with pulse -->
      <path d="M0 0 C0.66022156 0.00141495 1.32044312 0.0028299 2.00067139 0.00428772 C4.09945294 0.0098638 6.19812595 0.02241178 8.296875 0.03515625 C9.72395679 0.04017435 11.15104025 0.04473671 12.578125 0.04882812 C16.06774332 0.05982537 19.55729856 0.07707345 23.046875 0.09765625 C23.541875 2.07765625 23.541875 2.07765625 24.046875 4.09765625 C18.46460623 9.71048489 11.59237954 11.92859681 4.296875 14.66015625 C1.84369693 15.59881965 -0.60942898 16.53761937 -3.0625 17.4765625 C-4.23611084 17.9209668 -5.40972168 18.36537109 -6.61889648 18.82324219 C-10.36058867 20.25339765 -14.07651199 21.73984549 -17.78442383 23.25512695 C-20.82828899 24.43765298 -23.92363533 25.42431098 -27.04296875 26.38671875 C-29.23366467 27.11883748 -29.23366467 27.11883748 -31.953125 29.09765625 C-28.88044105 18.87536134 -22.00138287 8.4580282 -13.265625 2.16015625 C-8.78710281 0.10245687 -4.92457856 -0.02086686 0 0 Z " 
            fill="#ffffff" 
            opacity="0.9" 
            transform="translate(349.953125,117.90234375)">
        <animate attributeName="opacity" 
                 values="0.3;0.9;0.3" 
                 dur="3s" 
                 repeatCount="indefinite"/>
        <animateTransform
          attributeName="transform"
          type="scale"
          values="1,1;1.05,1.05;1,1"
          dur="3s"
          additive="sum"
          repeatCount="indefinite"/>
      </path>
      
      <!-- Bottom part -->
      <path d="M0 0 C0 0.99 0 1.98 0 3 C-5.93484661 5.11958808 -11.71532827 5.42725939 -17.98828125 5.75390625 C-20.92098318 5.8051227 -20.92098318 5.8051227 -23 7 C-26 5 -26 5 -28 2 C-20.54864606 -1.00920063 -7.63088011 -3.81544005 0 0 Z " 
            fill="#9333ea" 
            transform="translate(53,95)"/>
    </g>
  </g>
</g>

<!-- Magic sparkles floating up from spout -->
<g transform="translate(40,50)">
  <circle r="2" fill="#ffffff">
    <animate attributeName="cy" 
             values="0;-40;-80" 
             dur="3s" 
             repeatCount="indefinite"/>
    <animate attributeName="opacity" 
             values="0;1;0" 
             dur="3s" 
             repeatCount="indefinite"/>
    <animate attributeName="r" 
             values="2;1;0" 
             dur="3s" 
             repeatCount="indefinite"/>
  </circle>
</g>
<g transform="translate(45,45)">
  <circle r="1.5" fill="#e0e7ff">
    <animate attributeName="cy" 
             values="0;-40;-80" 
             dur="3s" 
             begin="1s"
             repeatCount="indefinite"/>
    <animate attributeName="opacity" 
             values="0;1;0" 
             dur="3s" 
             begin="1s"
             repeatCount="indefinite"/>
  </circle>
</g>
<g transform="translate(38,48)">
  <circle r="1" fill="#c7d2fe">
    <animate attributeName="cy" 
             values="0;-35;-70" 
             dur="2.5s" 
             begin="0.5s"
             repeatCount="indefinite"/>
    <animate attributeName="opacity" 
             values="0;0.8;0" 
             dur="2.5s" 
             begin="0.5s"
             repeatCount="indefinite"/>
  </circle>
</g>
</svg>